<svg width="1000" height="1000" viewBox="0 0 1000 1000" fill="none" xmlns="http://www.w3.org/2000/svg">
    <!-- 背景 -->
    <circle
        cx="500"
        cy="500"
        r="500"
        fill="#606E7A"
        />
    <!-- <rect width="1000" height="1000" fill="#606E7A"/> -->
    <!-- 围巾 -->
    <path
        d="M 250 750 L 750 750 L 750 825 Q 500 925 250 825 Z"
        fill="red"/>
    <path
        d="M 310 750 L 275 900 L 325 915 L 365 750 Z"
        fill="red"/>
    <!-- 头 -->
    <ellipse
        cx="500"
        cy="480"
        rx="400"
        ry="375"
        fill="black"
        />
    <!-- 脸 -->
    <ellipse
        cx="420"
        cy="535"
        rx="250"
        ry="250"
        fill="white"
        />
    <ellipse
        cx="580"
        cy="535"
        rx="250"
        ry="250"
        fill="white"
        />
    <!-- 眼睛 -->
    <!-- 左眼 -->
    <!-- 睁开 -->
    <ellipse
        cx="350"
        cy="535"
        rx="40"
        ry="60"
        fill="black"
        />
    <!-- 高光 -->
    <circle
        cx="370"
        cy="515"
        r="20"
        fill="white"
        />
    <!-- 闭合 -->
    <!-- <path
        d="M 300 535 Q 350 580 400 535"
        stroke="black"
        stroke-width="10"
    /> -->
    <!-- 右眼 -->
    <ellipse
        cx="650"
        cy="535"
        rx="40"
        ry="60"
        fill="black"
        />
    <!-- 高光 -->
    <circle
        cx="670"
        cy="515"
        r="20"
        fill="white"
        />
    <!-- 闭合 -->
    <!-- <path
        d="M 600 535 Q 650 580 700 535"
        stroke="black"
        stroke-width="10"
    /> -->
    <!-- 嘴巴 -->
    <path
        d="M 430 725 Q 480 710 490 650 Q 500 640 510 650 Q 520 710 570 725 Q 500 775 430 725 Z"
        fill="#ECC425"
        />
</svg>
